M48
; DRILL file {KiCad 7.0.10} date Fri 23 Feb 2024 02:34:06 PM CST
; FORMAT={-:-/ absolute / inch / decimal}
; #@! TF.CreationDate,2024-02-23T14:34:06-06:00
; #@! TF.GenerationSoftware,Kicad,Pcbnew,7.0.10
; #@! TF.FileFunction,Plated,1,2,PTH
FMAT,2
INCH
; #@! TA.AperFunction,Plated,PTH,ViaDrill
T1C0.0157
; #@! TA.AperFunction,Plated,PTH,ComponentDrill
T2C0.0197
; #@! TA.AperFunction,Plated,PTH,ViaDrill
T3C0.0236
; #@! TA.AperFunction,Plated,PTH,ComponentDrill
T4C0.0315
; #@! TA.AperFunction,Plated,PTH,ComponentDrill
T5C0.0400
; #@! TA.AperFunction,Plated,PTH,ComponentDrill
T6C0.0984
%
G90
G05
T1
X4.4127Y-3.7009
X4.4344Y-4.794
X4.4349Y-3.3766
X4.4397Y-4.4834
X4.4439Y-4.2035
X4.5173Y-5.0021
X4.5231Y-3.8926
X4.6198Y-3.5019
X4.6386Y-4.683
X4.7192Y-4.9018
X4.8372Y-3.3744
X4.9256Y-4.971
X4.9765Y-3.6564
X5.0158Y-4.7748
X5.0453Y-3.4878
X5.1134Y-4.8101
X5.1226Y-3.6135
X5.2405Y-4.9747
X5.3522Y-5.03
X5.3614Y-4.6975
X5.3891Y-4.724
X5.4442Y-4.8904
X5.5264Y-3.4726
X5.5853Y-4.762
X5.6284Y-5.0009
X5.6677Y-4.7575
X5.6899Y-4.3262
X5.7212Y-3.6096
X5.7915Y-4.8007
X5.8097Y-4.7625
X5.8202Y-3.5026
X5.9185Y-4.7294
X5.9457Y-4.9792
X5.9833Y-4.7796
X6.052Y-4.8481
X6.1308Y-3.4755
X6.1416Y-3.7865
X6.2131Y-4.2905
X6.2275Y-4.9869
X6.2597Y-4.1387
X6.2673Y-4.4195
X6.3018Y-4.3377
X6.3175Y-4.2153
X6.3442Y-3.6764
X6.3624Y-4.2406
X6.3862Y-4.8323
X6.3941Y-4.2529
X6.3959Y-4.9475
X6.4003Y-3.8943
X6.404Y-3.8498
X6.4271Y-4.2666
X6.4285Y-3.4882
X6.4378Y-5.6562
X6.4857Y-4.0572
X6.5069Y-4.7552
X6.5145Y-5.8937
X6.5149Y-5.2741
X6.5249Y-6.1903
X6.5301Y-5.595
X6.5309Y-4.1271
X6.5454Y-4.7589
X6.6215Y-4.7829
X6.6245Y-5.0376
X6.6253Y-3.882
X6.6554Y-5.9425
X6.6728Y-5.2697
X6.6804Y-5.7476
X6.7074Y-4.7345
X6.7122Y-4.7862
X6.7244Y-5.9343
X6.7443Y-3.4822
X6.7464Y-3.399
X6.7534Y-5.7178
X6.7746Y-5.2851
X6.7774Y-4.4273
X6.7876Y-5.7544
X6.8124Y-5.697
X6.822Y-5.3721
X6.8239Y-5.1109
X6.8253Y-4.9531
X6.8425Y-6.1743
X6.8921Y-4.9541
X6.9317Y-3.8815
X6.9496Y-6.1686
X6.9784Y-4.5986
X6.9848Y-4.5601
X6.9905Y-6.1619
X7.0176Y-3.6645
X7.0201Y-3.4768
X7.0475Y-5.3811
X7.0553Y-3.8079
X7.0567Y-5.9624
X7.0947Y-3.5967
X7.112Y-4.5779
X7.1243Y-5.1099
X7.1353Y-6.1713
X7.1402Y-3.9973
X7.1794Y-4.9541
X7.2129Y-4.2035
X7.2172Y-3.6556
X7.2238Y-4.9567
X7.2349Y-3.5843
X7.2457Y-5.9299
X7.2487Y-5.118
X7.2657Y-4.387
X7.2771Y-5.4581
X7.2867Y-3.998
X7.2911Y-4.9023
X7.3167Y-4.4194
X7.3257Y-4.9886
X7.3268Y-4.0019
X7.3356Y-3.8957
X7.3511Y-4.123
X7.3576Y-4.3105
X7.3789Y-4.9386
X7.4058Y-4.227
X7.4068Y-4.6629
X7.4135Y-3.4745
X7.442Y-5.9182
X7.4434Y-5.696
X7.4528Y-4.9441
X7.4727Y-5.4739
X7.4758Y-5.1163
X7.5139Y-4.8299
X7.5159Y-3.7848
X7.537Y-5.4966
X7.5547Y-5.1168
X7.5591Y-3.4124
X7.5615Y-5.7508
X7.5801Y-4.566
X7.6203Y-4.9727
X7.623Y-4.1869
X7.6306Y-3.9887
X7.6327Y-4.482
X7.6352Y-3.8719
X7.6416Y-5.2794
X7.6705Y-4.2307
X7.6799Y-3.5467
X7.7122Y-5.5938
X7.7173Y-3.6729
X7.7211Y-4.0022
X7.7373Y-5.8868
X7.7381Y-3.4036
X7.7439Y-6.204
X7.7598Y-4.6999
X7.7733Y-4.4843
X7.918Y-4.6864
X7.9224Y-6.0024
X7.9233Y-5.2756
X7.9257Y-3.4954
X7.9286Y-3.7876
X7.9361Y-4.4014
X7.9369Y-4.0903
X7.9398Y-6.2809
X7.9441Y-5.0037
X7.9461Y-5.6889
T2
X4.4162Y-4.015
X4.4378Y-3.9628
X4.4378Y-4.0672
X4.49Y-3.9412
X4.49Y-4.0888
X4.5422Y-3.9628
X4.5422Y-4.0672
X4.5638Y-4.015
T3
X6.4788Y-4.9543
T4
X4.7246Y-3.7618
X4.7246Y-3.8618
X4.7246Y-3.9618
X4.7246Y-4.0618
X4.7246Y-4.1618
X4.7246Y-4.2618
X4.7246Y-4.3618
X4.7246Y-4.4618
X4.7246Y-4.5618
X4.8246Y-3.6618
X4.8246Y-3.7618
X4.8246Y-3.8618
X4.8246Y-3.9618
X4.8246Y-4.0618
X4.8246Y-4.1618
X4.8246Y-4.2618
X4.8246Y-4.3618
X4.8246Y-4.4618
X4.8246Y-4.5618
X4.8246Y-4.6618
X4.9246Y-3.6618
X4.9246Y-3.7618
X4.9246Y-4.5618
X4.9246Y-4.6618
X5.0246Y-3.6618
X5.0246Y-3.7618
X5.0246Y-4.5618
X5.0246Y-4.6618
X5.1246Y-3.6618
X5.1246Y-3.7618
X5.1246Y-4.5618
X5.1246Y-4.6618
X5.2246Y-3.6618
X5.2246Y-3.7618
X5.2246Y-4.5618
X5.2246Y-4.6618
X5.3246Y-3.6618
X5.3246Y-3.7618
X5.3246Y-4.5618
X5.3246Y-4.6618
X5.4246Y-3.6618
X5.4246Y-3.7618
X5.4246Y-4.5618
X5.4246Y-4.6618
X5.5246Y-3.6618
X5.5246Y-3.7618
X5.5246Y-4.5618
X5.5246Y-4.6618
X5.6246Y-3.6618
X5.6246Y-3.7618
X5.6246Y-3.8618
X5.6246Y-3.9618
X5.6246Y-4.0618
X5.6246Y-4.1618
X5.6246Y-4.2618
X5.6246Y-4.3618
X5.6246Y-4.4618
X5.6246Y-4.5618
X5.6246Y-4.6618
X5.7246Y-3.7618
X5.7246Y-3.8618
X5.7246Y-3.9618
X5.7246Y-4.0618
X5.7246Y-4.1618
X5.7246Y-4.2618
X5.7246Y-4.3618
X5.7246Y-4.4618
X5.7246Y-4.5618
X6.0357Y-4.0594
X6.0357Y-4.1594
X6.0357Y-4.2594
X6.0357Y-4.3594
X6.0357Y-4.4594
X6.0357Y-4.5594
X6.1357Y-3.9594
X6.1357Y-4.0594
X6.1357Y-4.1594
X6.1357Y-4.2594
X6.1357Y-4.3594
X6.1357Y-4.4594
X6.1357Y-4.5594
X6.1357Y-4.6594
X6.2357Y-3.9594
X6.2357Y-4.0594
X6.2357Y-4.5594
X6.2357Y-4.6594
X6.3357Y-3.9594
X6.3357Y-4.0594
X6.3357Y-4.5594
X6.3357Y-4.6594
X6.4357Y-3.9594
X6.4357Y-4.0594
X6.4357Y-4.5594
X6.4357Y-4.6594
X6.5357Y-3.9594
X6.5357Y-4.0594
X6.5357Y-4.5594
X6.5357Y-4.6594
X6.6357Y-3.9594
X6.6357Y-4.0594
X6.6357Y-4.1594
X6.6357Y-4.2594
X6.6357Y-4.3594
X6.6357Y-4.4594
X6.6357Y-4.5594
X6.6357Y-4.6594
X6.7357Y-4.0594
X6.7357Y-4.1594
X6.7357Y-4.2594
X6.7357Y-4.3594
X6.7357Y-4.4594
X6.7357Y-4.5594
T5
X7.0301Y-4.1144
X7.0301Y-4.2144
X7.0301Y-4.3144
X7.0301Y-4.4144
X7.0301Y-4.5144
X7.1301Y-4.1144
X7.1301Y-4.2144
X7.1301Y-4.3144
X7.1301Y-4.4144
X7.1301Y-4.5144
T6
X4.49Y-4.015
M30
