G04 #@! TF.GenerationSoftware,KiCad,Pcbnew,7.0.10*
G04 #@! TF.CreationDate,2024-02-23T15:08:55-06:00*
G04 #@! TF.ProjectId,A600FastRAM,41363030-4661-4737-9452-414d2e6b6963,5*
G04 #@! TF.SameCoordinates,Original*
G04 #@! TF.FileFunction,Legend,Bot*
G04 #@! TF.FilePolarity,Positive*
%FSLAX46Y46*%
G04 Gerber Fmt 4.6, Leading zero omitted, Abs format (unit mm)*
G04 Created by KiCad (PCBNEW 7.0.10) date 2024-02-23 15:08:55*
%MOMM*%
%LPD*%
G01*
G04 APERTURE LIST*
%ADD10C,0.150000*%
%ADD11C,0.200000*%
%ADD12C,0.120000*%
G04 APERTURE END LIST*
D10*
X176654033Y-103621000D02*
X176654033Y-104021000D01*
X177354033Y-103821000D02*
X176654033Y-103821000D01*
X177287366Y-104654333D02*
X177320700Y-104621000D01*
X177320700Y-104621000D02*
X177354033Y-104521000D01*
X177354033Y-104521000D02*
X177354033Y-104454333D01*
X177354033Y-104454333D02*
X177320700Y-104354333D01*
X177320700Y-104354333D02*
X177254033Y-104287667D01*
X177254033Y-104287667D02*
X177187366Y-104254333D01*
X177187366Y-104254333D02*
X177054033Y-104221000D01*
X177054033Y-104221000D02*
X176954033Y-104221000D01*
X176954033Y-104221000D02*
X176820700Y-104254333D01*
X176820700Y-104254333D02*
X176754033Y-104287667D01*
X176754033Y-104287667D02*
X176687366Y-104354333D01*
X176687366Y-104354333D02*
X176654033Y-104454333D01*
X176654033Y-104454333D02*
X176654033Y-104521000D01*
X176654033Y-104521000D02*
X176687366Y-104621000D01*
X176687366Y-104621000D02*
X176720700Y-104654333D01*
X177354033Y-104954333D02*
X176654033Y-104954333D01*
X177354033Y-105354333D02*
X176954033Y-105054333D01*
X176654033Y-105354333D02*
X177054033Y-104954333D01*
X176654033Y-106144333D02*
X176654033Y-106544333D01*
X177354033Y-106344333D02*
X176654033Y-106344333D01*
X177354033Y-106777666D02*
X176654033Y-106777666D01*
X176654033Y-106777666D02*
X176654033Y-106944333D01*
X176654033Y-106944333D02*
X176687366Y-107044333D01*
X176687366Y-107044333D02*
X176754033Y-107111000D01*
X176754033Y-107111000D02*
X176820700Y-107144333D01*
X176820700Y-107144333D02*
X176954033Y-107177666D01*
X176954033Y-107177666D02*
X177054033Y-107177666D01*
X177054033Y-107177666D02*
X177187366Y-107144333D01*
X177187366Y-107144333D02*
X177254033Y-107111000D01*
X177254033Y-107111000D02*
X177320700Y-107044333D01*
X177320700Y-107044333D02*
X177354033Y-106944333D01*
X177354033Y-106944333D02*
X177354033Y-106777666D01*
X176654033Y-107611000D02*
X176654033Y-107744333D01*
X176654033Y-107744333D02*
X176687366Y-107811000D01*
X176687366Y-107811000D02*
X176754033Y-107877666D01*
X176754033Y-107877666D02*
X176887366Y-107911000D01*
X176887366Y-107911000D02*
X177120700Y-107911000D01*
X177120700Y-107911000D02*
X177254033Y-107877666D01*
X177254033Y-107877666D02*
X177320700Y-107811000D01*
X177320700Y-107811000D02*
X177354033Y-107744333D01*
X177354033Y-107744333D02*
X177354033Y-107611000D01*
X177354033Y-107611000D02*
X177320700Y-107544333D01*
X177320700Y-107544333D02*
X177254033Y-107477666D01*
X177254033Y-107477666D02*
X177120700Y-107444333D01*
X177120700Y-107444333D02*
X176887366Y-107444333D01*
X176887366Y-107444333D02*
X176754033Y-107477666D01*
X176754033Y-107477666D02*
X176687366Y-107544333D01*
X176687366Y-107544333D02*
X176654033Y-107611000D01*
X176654033Y-108794666D02*
X176654033Y-109194666D01*
X177354033Y-108994666D02*
X176654033Y-108994666D01*
X177354033Y-109427999D02*
X176654033Y-109427999D01*
X176654033Y-109427999D02*
X177154033Y-109661333D01*
X177154033Y-109661333D02*
X176654033Y-109894666D01*
X176654033Y-109894666D02*
X177354033Y-109894666D01*
X177320700Y-110194666D02*
X177354033Y-110294666D01*
X177354033Y-110294666D02*
X177354033Y-110461333D01*
X177354033Y-110461333D02*
X177320700Y-110527999D01*
X177320700Y-110527999D02*
X177287366Y-110561333D01*
X177287366Y-110561333D02*
X177220700Y-110594666D01*
X177220700Y-110594666D02*
X177154033Y-110594666D01*
X177154033Y-110594666D02*
X177087366Y-110561333D01*
X177087366Y-110561333D02*
X177054033Y-110527999D01*
X177054033Y-110527999D02*
X177020700Y-110461333D01*
X177020700Y-110461333D02*
X176987366Y-110327999D01*
X176987366Y-110327999D02*
X176954033Y-110261333D01*
X176954033Y-110261333D02*
X176920700Y-110227999D01*
X176920700Y-110227999D02*
X176854033Y-110194666D01*
X176854033Y-110194666D02*
X176787366Y-110194666D01*
X176787366Y-110194666D02*
X176720700Y-110227999D01*
X176720700Y-110227999D02*
X176687366Y-110261333D01*
X176687366Y-110261333D02*
X176654033Y-110327999D01*
X176654033Y-110327999D02*
X176654033Y-110494666D01*
X176654033Y-110494666D02*
X176687366Y-110594666D01*
X176654033Y-113964333D02*
X176654033Y-114364333D01*
X177354033Y-114164333D02*
X176654033Y-114164333D01*
X177354033Y-114597666D02*
X176654033Y-114597666D01*
X176654033Y-114597666D02*
X176654033Y-114764333D01*
X176654033Y-114764333D02*
X176687366Y-114864333D01*
X176687366Y-114864333D02*
X176754033Y-114931000D01*
X176754033Y-114931000D02*
X176820700Y-114964333D01*
X176820700Y-114964333D02*
X176954033Y-114997666D01*
X176954033Y-114997666D02*
X177054033Y-114997666D01*
X177054033Y-114997666D02*
X177187366Y-114964333D01*
X177187366Y-114964333D02*
X177254033Y-114931000D01*
X177254033Y-114931000D02*
X177320700Y-114864333D01*
X177320700Y-114864333D02*
X177354033Y-114764333D01*
X177354033Y-114764333D02*
X177354033Y-114597666D01*
X177354033Y-115297666D02*
X176654033Y-115297666D01*
X182529366Y-114147667D02*
X182496033Y-114081000D01*
X182496033Y-114081000D02*
X182496033Y-113981000D01*
X182496033Y-113981000D02*
X182529366Y-113881000D01*
X182529366Y-113881000D02*
X182596033Y-113814334D01*
X182596033Y-113814334D02*
X182662700Y-113781000D01*
X182662700Y-113781000D02*
X182796033Y-113747667D01*
X182796033Y-113747667D02*
X182896033Y-113747667D01*
X182896033Y-113747667D02*
X183029366Y-113781000D01*
X183029366Y-113781000D02*
X183096033Y-113814334D01*
X183096033Y-113814334D02*
X183162700Y-113881000D01*
X183162700Y-113881000D02*
X183196033Y-113981000D01*
X183196033Y-113981000D02*
X183196033Y-114047667D01*
X183196033Y-114047667D02*
X183162700Y-114147667D01*
X183162700Y-114147667D02*
X183129366Y-114181000D01*
X183129366Y-114181000D02*
X182896033Y-114181000D01*
X182896033Y-114181000D02*
X182896033Y-114047667D01*
X183196033Y-114481000D02*
X182496033Y-114481000D01*
X182496033Y-114481000D02*
X183196033Y-114881000D01*
X183196033Y-114881000D02*
X182496033Y-114881000D01*
X183196033Y-115214333D02*
X182496033Y-115214333D01*
X182496033Y-115214333D02*
X182496033Y-115381000D01*
X182496033Y-115381000D02*
X182529366Y-115481000D01*
X182529366Y-115481000D02*
X182596033Y-115547667D01*
X182596033Y-115547667D02*
X182662700Y-115581000D01*
X182662700Y-115581000D02*
X182796033Y-115614333D01*
X182796033Y-115614333D02*
X182896033Y-115614333D01*
X182896033Y-115614333D02*
X183029366Y-115581000D01*
X183029366Y-115581000D02*
X183096033Y-115547667D01*
X183096033Y-115547667D02*
X183162700Y-115481000D01*
X183162700Y-115481000D02*
X183196033Y-115381000D01*
X183196033Y-115381000D02*
X183196033Y-115214333D01*
X182529366Y-103987667D02*
X182496033Y-103921000D01*
X182496033Y-103921000D02*
X182496033Y-103821000D01*
X182496033Y-103821000D02*
X182529366Y-103721000D01*
X182529366Y-103721000D02*
X182596033Y-103654334D01*
X182596033Y-103654334D02*
X182662700Y-103621000D01*
X182662700Y-103621000D02*
X182796033Y-103587667D01*
X182796033Y-103587667D02*
X182896033Y-103587667D01*
X182896033Y-103587667D02*
X183029366Y-103621000D01*
X183029366Y-103621000D02*
X183096033Y-103654334D01*
X183096033Y-103654334D02*
X183162700Y-103721000D01*
X183162700Y-103721000D02*
X183196033Y-103821000D01*
X183196033Y-103821000D02*
X183196033Y-103887667D01*
X183196033Y-103887667D02*
X183162700Y-103987667D01*
X183162700Y-103987667D02*
X183129366Y-104021000D01*
X183129366Y-104021000D02*
X182896033Y-104021000D01*
X182896033Y-104021000D02*
X182896033Y-103887667D01*
X183196033Y-104321000D02*
X182496033Y-104321000D01*
X182496033Y-104321000D02*
X183196033Y-104721000D01*
X183196033Y-104721000D02*
X182496033Y-104721000D01*
X183196033Y-105054333D02*
X182496033Y-105054333D01*
X182496033Y-105054333D02*
X182496033Y-105221000D01*
X182496033Y-105221000D02*
X182529366Y-105321000D01*
X182529366Y-105321000D02*
X182596033Y-105387667D01*
X182596033Y-105387667D02*
X182662700Y-105421000D01*
X182662700Y-105421000D02*
X182796033Y-105454333D01*
X182796033Y-105454333D02*
X182896033Y-105454333D01*
X182896033Y-105454333D02*
X183029366Y-105421000D01*
X183029366Y-105421000D02*
X183096033Y-105387667D01*
X183096033Y-105387667D02*
X183162700Y-105321000D01*
X183162700Y-105321000D02*
X183196033Y-105221000D01*
X183196033Y-105221000D02*
X183196033Y-105054333D01*
X182496033Y-106127666D02*
X183196033Y-106361000D01*
X183196033Y-106361000D02*
X182496033Y-106594333D01*
X183129366Y-107227666D02*
X183162700Y-107194333D01*
X183162700Y-107194333D02*
X183196033Y-107094333D01*
X183196033Y-107094333D02*
X183196033Y-107027666D01*
X183196033Y-107027666D02*
X183162700Y-106927666D01*
X183162700Y-106927666D02*
X183096033Y-106861000D01*
X183096033Y-106861000D02*
X183029366Y-106827666D01*
X183029366Y-106827666D02*
X182896033Y-106794333D01*
X182896033Y-106794333D02*
X182796033Y-106794333D01*
X182796033Y-106794333D02*
X182662700Y-106827666D01*
X182662700Y-106827666D02*
X182596033Y-106861000D01*
X182596033Y-106861000D02*
X182529366Y-106927666D01*
X182529366Y-106927666D02*
X182496033Y-107027666D01*
X182496033Y-107027666D02*
X182496033Y-107094333D01*
X182496033Y-107094333D02*
X182529366Y-107194333D01*
X182529366Y-107194333D02*
X182562700Y-107227666D01*
X183129366Y-107927666D02*
X183162700Y-107894333D01*
X183162700Y-107894333D02*
X183196033Y-107794333D01*
X183196033Y-107794333D02*
X183196033Y-107727666D01*
X183196033Y-107727666D02*
X183162700Y-107627666D01*
X183162700Y-107627666D02*
X183096033Y-107561000D01*
X183096033Y-107561000D02*
X183029366Y-107527666D01*
X183029366Y-107527666D02*
X182896033Y-107494333D01*
X182896033Y-107494333D02*
X182796033Y-107494333D01*
X182796033Y-107494333D02*
X182662700Y-107527666D01*
X182662700Y-107527666D02*
X182596033Y-107561000D01*
X182596033Y-107561000D02*
X182529366Y-107627666D01*
X182529366Y-107627666D02*
X182496033Y-107727666D01*
X182496033Y-107727666D02*
X182496033Y-107794333D01*
X182496033Y-107794333D02*
X182529366Y-107894333D01*
X182529366Y-107894333D02*
X182562700Y-107927666D01*
D11*
X114159023Y-123666219D02*
X113825690Y-124666219D01*
X113825690Y-124666219D02*
X113492357Y-123666219D01*
X112635214Y-124666219D02*
X113206642Y-124666219D01*
X112920928Y-124666219D02*
X112920928Y-123666219D01*
X112920928Y-123666219D02*
X113016166Y-123809076D01*
X113016166Y-123809076D02*
X113111404Y-123904314D01*
X113111404Y-123904314D02*
X113206642Y-123951933D01*
D10*
X162091666Y-107673580D02*
X162139285Y-107721200D01*
X162139285Y-107721200D02*
X162282142Y-107768819D01*
X162282142Y-107768819D02*
X162377380Y-107768819D01*
X162377380Y-107768819D02*
X162520237Y-107721200D01*
X162520237Y-107721200D02*
X162615475Y-107625961D01*
X162615475Y-107625961D02*
X162663094Y-107530723D01*
X162663094Y-107530723D02*
X162710713Y-107340247D01*
X162710713Y-107340247D02*
X162710713Y-107197390D01*
X162710713Y-107197390D02*
X162663094Y-107006914D01*
X162663094Y-107006914D02*
X162615475Y-106911676D01*
X162615475Y-106911676D02*
X162520237Y-106816438D01*
X162520237Y-106816438D02*
X162377380Y-106768819D01*
X162377380Y-106768819D02*
X162282142Y-106768819D01*
X162282142Y-106768819D02*
X162139285Y-106816438D01*
X162139285Y-106816438D02*
X162091666Y-106864057D01*
X161615475Y-107768819D02*
X161424999Y-107768819D01*
X161424999Y-107768819D02*
X161329761Y-107721200D01*
X161329761Y-107721200D02*
X161282142Y-107673580D01*
X161282142Y-107673580D02*
X161186904Y-107530723D01*
X161186904Y-107530723D02*
X161139285Y-107340247D01*
X161139285Y-107340247D02*
X161139285Y-106959295D01*
X161139285Y-106959295D02*
X161186904Y-106864057D01*
X161186904Y-106864057D02*
X161234523Y-106816438D01*
X161234523Y-106816438D02*
X161329761Y-106768819D01*
X161329761Y-106768819D02*
X161520237Y-106768819D01*
X161520237Y-106768819D02*
X161615475Y-106816438D01*
X161615475Y-106816438D02*
X161663094Y-106864057D01*
X161663094Y-106864057D02*
X161710713Y-106959295D01*
X161710713Y-106959295D02*
X161710713Y-107197390D01*
X161710713Y-107197390D02*
X161663094Y-107292628D01*
X161663094Y-107292628D02*
X161615475Y-107340247D01*
X161615475Y-107340247D02*
X161520237Y-107387866D01*
X161520237Y-107387866D02*
X161329761Y-107387866D01*
X161329761Y-107387866D02*
X161234523Y-107340247D01*
X161234523Y-107340247D02*
X161186904Y-107292628D01*
X161186904Y-107292628D02*
X161139285Y-107197390D01*
X154158580Y-120904142D02*
X154206200Y-120856523D01*
X154206200Y-120856523D02*
X154253819Y-120713666D01*
X154253819Y-120713666D02*
X154253819Y-120618428D01*
X154253819Y-120618428D02*
X154206200Y-120475571D01*
X154206200Y-120475571D02*
X154110961Y-120380333D01*
X154110961Y-120380333D02*
X154015723Y-120332714D01*
X154015723Y-120332714D02*
X153825247Y-120285095D01*
X153825247Y-120285095D02*
X153682390Y-120285095D01*
X153682390Y-120285095D02*
X153491914Y-120332714D01*
X153491914Y-120332714D02*
X153396676Y-120380333D01*
X153396676Y-120380333D02*
X153301438Y-120475571D01*
X153301438Y-120475571D02*
X153253819Y-120618428D01*
X153253819Y-120618428D02*
X153253819Y-120713666D01*
X153253819Y-120713666D02*
X153301438Y-120856523D01*
X153301438Y-120856523D02*
X153349057Y-120904142D01*
X154253819Y-121856523D02*
X154253819Y-121285095D01*
X154253819Y-121570809D02*
X153253819Y-121570809D01*
X153253819Y-121570809D02*
X153396676Y-121475571D01*
X153396676Y-121475571D02*
X153491914Y-121380333D01*
X153491914Y-121380333D02*
X153539533Y-121285095D01*
X153253819Y-122475571D02*
X153253819Y-122570809D01*
X153253819Y-122570809D02*
X153301438Y-122666047D01*
X153301438Y-122666047D02*
X153349057Y-122713666D01*
X153349057Y-122713666D02*
X153444295Y-122761285D01*
X153444295Y-122761285D02*
X153634771Y-122808904D01*
X153634771Y-122808904D02*
X153872866Y-122808904D01*
X153872866Y-122808904D02*
X154063342Y-122761285D01*
X154063342Y-122761285D02*
X154158580Y-122713666D01*
X154158580Y-122713666D02*
X154206200Y-122666047D01*
X154206200Y-122666047D02*
X154253819Y-122570809D01*
X154253819Y-122570809D02*
X154253819Y-122475571D01*
X154253819Y-122475571D02*
X154206200Y-122380333D01*
X154206200Y-122380333D02*
X154158580Y-122332714D01*
X154158580Y-122332714D02*
X154063342Y-122285095D01*
X154063342Y-122285095D02*
X153872866Y-122237476D01*
X153872866Y-122237476D02*
X153634771Y-122237476D01*
X153634771Y-122237476D02*
X153444295Y-122285095D01*
X153444295Y-122285095D02*
X153349057Y-122332714D01*
X153349057Y-122332714D02*
X153301438Y-122380333D01*
X153301438Y-122380333D02*
X153253819Y-122475571D01*
X162567857Y-111865580D02*
X162615476Y-111913200D01*
X162615476Y-111913200D02*
X162758333Y-111960819D01*
X162758333Y-111960819D02*
X162853571Y-111960819D01*
X162853571Y-111960819D02*
X162996428Y-111913200D01*
X162996428Y-111913200D02*
X163091666Y-111817961D01*
X163091666Y-111817961D02*
X163139285Y-111722723D01*
X163139285Y-111722723D02*
X163186904Y-111532247D01*
X163186904Y-111532247D02*
X163186904Y-111389390D01*
X163186904Y-111389390D02*
X163139285Y-111198914D01*
X163139285Y-111198914D02*
X163091666Y-111103676D01*
X163091666Y-111103676D02*
X162996428Y-111008438D01*
X162996428Y-111008438D02*
X162853571Y-110960819D01*
X162853571Y-110960819D02*
X162758333Y-110960819D01*
X162758333Y-110960819D02*
X162615476Y-111008438D01*
X162615476Y-111008438D02*
X162567857Y-111056057D01*
X161615476Y-111960819D02*
X162186904Y-111960819D01*
X161901190Y-111960819D02*
X161901190Y-110960819D01*
X161901190Y-110960819D02*
X161996428Y-111103676D01*
X161996428Y-111103676D02*
X162091666Y-111198914D01*
X162091666Y-111198914D02*
X162186904Y-111246533D01*
X160663095Y-111960819D02*
X161234523Y-111960819D01*
X160948809Y-111960819D02*
X160948809Y-110960819D01*
X160948809Y-110960819D02*
X161044047Y-111103676D01*
X161044047Y-111103676D02*
X161139285Y-111198914D01*
X161139285Y-111198914D02*
X161234523Y-111246533D01*
X173968580Y-104767142D02*
X174016200Y-104719523D01*
X174016200Y-104719523D02*
X174063819Y-104576666D01*
X174063819Y-104576666D02*
X174063819Y-104481428D01*
X174063819Y-104481428D02*
X174016200Y-104338571D01*
X174016200Y-104338571D02*
X173920961Y-104243333D01*
X173920961Y-104243333D02*
X173825723Y-104195714D01*
X173825723Y-104195714D02*
X173635247Y-104148095D01*
X173635247Y-104148095D02*
X173492390Y-104148095D01*
X173492390Y-104148095D02*
X173301914Y-104195714D01*
X173301914Y-104195714D02*
X173206676Y-104243333D01*
X173206676Y-104243333D02*
X173111438Y-104338571D01*
X173111438Y-104338571D02*
X173063819Y-104481428D01*
X173063819Y-104481428D02*
X173063819Y-104576666D01*
X173063819Y-104576666D02*
X173111438Y-104719523D01*
X173111438Y-104719523D02*
X173159057Y-104767142D01*
X174063819Y-105719523D02*
X174063819Y-105148095D01*
X174063819Y-105433809D02*
X173063819Y-105433809D01*
X173063819Y-105433809D02*
X173206676Y-105338571D01*
X173206676Y-105338571D02*
X173301914Y-105243333D01*
X173301914Y-105243333D02*
X173349533Y-105148095D01*
X173159057Y-106100476D02*
X173111438Y-106148095D01*
X173111438Y-106148095D02*
X173063819Y-106243333D01*
X173063819Y-106243333D02*
X173063819Y-106481428D01*
X173063819Y-106481428D02*
X173111438Y-106576666D01*
X173111438Y-106576666D02*
X173159057Y-106624285D01*
X173159057Y-106624285D02*
X173254295Y-106671904D01*
X173254295Y-106671904D02*
X173349533Y-106671904D01*
X173349533Y-106671904D02*
X173492390Y-106624285D01*
X173492390Y-106624285D02*
X174063819Y-106052857D01*
X174063819Y-106052857D02*
X174063819Y-106671904D01*
D12*
X117081000Y-91085000D02*
X117081000Y-121335000D01*
X117081000Y-121335000D02*
X148331000Y-121335000D01*
X118081000Y-90085000D02*
X117081000Y-91085000D01*
X148331000Y-90085000D02*
X118101000Y-90089000D01*
X148331000Y-121335000D02*
X148331000Y-90085000D01*
X161663748Y-104954000D02*
X162186252Y-104954000D01*
X161663748Y-106374000D02*
X162186252Y-106374000D01*
X156541000Y-121285748D02*
X156541000Y-121808252D01*
X155121000Y-121285748D02*
X155121000Y-121808252D01*
X161663748Y-112574000D02*
X162186252Y-112574000D01*
X161663748Y-113994000D02*
X162186252Y-113994000D01*
X174319000Y-108958748D02*
X174319000Y-109481252D01*
X172899000Y-108958748D02*
X172899000Y-109481252D01*
M02*
