M48
; DRILL file {KiCad 7.0.10} date Fri 23 Feb 2024 01:16:59 PM CST
; FORMAT={-:-/ absolute / inch / decimal}
; #@! TF.CreationDate,2024-02-23T13:16:59-06:00
; #@! TF.GenerationSoftware,Kicad,Pcbnew,7.0.10
; #@! TF.FileFunction,Plated,1,2,PTH
FMAT,2
INCH
; #@! TA.AperFunction,Plated,PTH,ViaDrill
T1C0.0157
; #@! TA.AperFunction,Plated,PTH,ComponentDrill
T2C0.0197
; #@! TA.AperFunction,Plated,PTH,ViaDrill
T3C0.0236
; #@! TA.AperFunction,Plated,PTH,ComponentDrill
T4C0.0315
; #@! TA.AperFunction,Plated,PTH,ComponentDrill
T5C0.0400
; #@! TA.AperFunction,Plated,PTH,ComponentDrill
T6C0.0984
%
G90
G05
T1
X4.4234Y-3.6745
X4.4319Y-4.4916
X4.4339Y-3.3723
X4.4403Y-4.7843
X4.442Y-4.1861
X4.5327Y-4.9715
X4.5451Y-3.9014
X4.6199Y-4.696
X4.6319Y-3.5026
X4.7446Y-4.8863
X4.8151Y-3.3925
X4.9165Y-4.9952
X4.9765Y-3.6564
X5.0247Y-3.4752
X5.0439Y-4.8038
X5.1134Y-4.8101
X5.1226Y-3.6135
X5.2398Y-5.0049
X5.3522Y-5.03
X5.3614Y-4.6975
X5.3891Y-4.724
X5.443Y-4.8967
X5.5455Y-3.4803
X5.5853Y-4.762
X5.6314Y-5.0011
X5.6677Y-4.7575
X5.6899Y-4.3262
X5.7212Y-3.6096
X5.7915Y-4.8007
X5.8097Y-4.7625
X5.8249Y-3.4731
X5.9155Y-4.9767
X5.9185Y-4.7294
X5.9833Y-4.7796
X6.052Y-4.8481
X6.1235Y-3.4889
X6.1368Y-3.791
X6.2131Y-4.2905
X6.2187Y-5.0036
X6.2597Y-4.1387
X6.2673Y-4.4195
X6.3018Y-4.3377
X6.3145Y-3.6827
X6.3175Y-4.2153
X6.3624Y-4.2406
X6.3862Y-4.8323
X6.3941Y-4.2529
X6.3959Y-4.9475
X6.4003Y-3.8943
X6.404Y-3.8498
X6.4271Y-4.2666
X6.4332Y-3.4713
X6.4378Y-5.6562
X6.4857Y-4.0572
X6.5069Y-4.7552
X6.5192Y-5.2725
X6.5294Y-5.6009
X6.5309Y-4.1271
X6.5342Y-5.8806
X6.5436Y-6.193
X6.5454Y-4.7589
X6.6215Y-4.7829
X6.6245Y-5.0376
X6.6304Y-3.8755
X6.6554Y-5.9425
X6.6728Y-5.2697
X6.6804Y-5.7476
X6.7074Y-4.7345
X6.7244Y-5.9343
X6.745Y-3.4847
X6.7458Y-4.7895
X6.7464Y-3.399
X6.7534Y-5.7178
X6.7746Y-5.2851
X6.7774Y-4.4273
X6.7876Y-5.7544
X6.8124Y-5.697
X6.8239Y-5.1109
X6.8253Y-4.9531
X6.8353Y-5.3787
X6.8425Y-6.1743
X6.8921Y-4.9541
X6.9157Y-3.8847
X6.9496Y-6.1686
X6.9784Y-4.5986
X6.9848Y-4.5601
X6.9905Y-6.1619
X7.0168Y-3.4735
X7.0176Y-3.6645
X7.0475Y-5.3811
X7.0553Y-3.8079
X7.0567Y-5.9624
X7.0947Y-3.5967
X7.1168Y-4.5772
X7.1243Y-5.1099
X7.1353Y-6.1713
X7.1404Y-3.9947
X7.1794Y-4.9541
X7.2131Y-4.1967
X7.2172Y-3.6556
X7.2238Y-4.9567
X7.2348Y-3.5908
X7.2457Y-5.9299
X7.2487Y-5.118
X7.2657Y-4.387
X7.2771Y-5.4581
X7.2867Y-3.998
X7.2911Y-4.9023
X7.316Y-4.9844
X7.3167Y-4.4194
X7.325Y-3.8921
X7.3268Y-4.0019
X7.3511Y-4.123
X7.3576Y-4.3105
X7.3789Y-4.9386
X7.4058Y-4.227
X7.4068Y-4.6629
X7.4239Y-3.4797
X7.442Y-5.9182
X7.4434Y-5.696
X7.4528Y-4.9441
X7.4727Y-5.4739
X7.4758Y-5.1163
X7.5139Y-4.8299
X7.5328Y-3.7782
X7.537Y-5.4966
X7.5547Y-5.1168
X7.5591Y-3.4124
X7.5615Y-5.7508
X7.5801Y-4.566
X7.623Y-4.1869
X7.6327Y-4.482
X7.6332Y-3.9799
X7.6336Y-4.9719
X7.6352Y-3.8719
X7.6415Y-5.2804
X7.6705Y-4.2307
X7.6799Y-3.5467
X7.7211Y-4.0022
X7.7298Y-5.599
X7.7302Y-6.193
X7.7307Y-3.6789
X7.7408Y-3.3934
X7.7452Y-5.8836
X7.7598Y-4.6999
X7.7733Y-4.4843
X7.9122Y-5.2879
X7.9123Y-4.0953
X7.9177Y-4.6788
X7.926Y-5.6924
X7.9284Y-4.3746
X7.9306Y-3.4822
X7.9316Y-5.9817
X7.9373Y-4.9902
X7.9399Y-6.2828
X7.9431Y-3.7735
T2
X4.4162Y-4.015
X4.4378Y-3.9628
X4.4378Y-4.0672
X4.49Y-3.9412
X4.49Y-4.0888
X4.5422Y-3.9628
X4.5422Y-4.0672
X4.5638Y-4.015
T3
X6.4788Y-4.9543
T4
X4.7246Y-3.7618
X4.7246Y-3.8618
X4.7246Y-3.9618
X4.7246Y-4.0618
X4.7246Y-4.1618
X4.7246Y-4.2618
X4.7246Y-4.3618
X4.7246Y-4.4618
X4.7246Y-4.5618
X4.8246Y-3.6618
X4.8246Y-3.7618
X4.8246Y-3.8618
X4.8246Y-3.9618
X4.8246Y-4.0618
X4.8246Y-4.1618
X4.8246Y-4.2618
X4.8246Y-4.3618
X4.8246Y-4.4618
X4.8246Y-4.5618
X4.8246Y-4.6618
X4.9246Y-3.6618
X4.9246Y-3.7618
X4.9246Y-4.5618
X4.9246Y-4.6618
X5.0246Y-3.6618
X5.0246Y-3.7618
X5.0246Y-4.5618
X5.0246Y-4.6618
X5.1246Y-3.6618
X5.1246Y-3.7618
X5.1246Y-4.5618
X5.1246Y-4.6618
X5.2246Y-3.6618
X5.2246Y-3.7618
X5.2246Y-4.5618
X5.2246Y-4.6618
X5.3246Y-3.6618
X5.3246Y-3.7618
X5.3246Y-4.5618
X5.3246Y-4.6618
X5.4246Y-3.6618
X5.4246Y-3.7618
X5.4246Y-4.5618
X5.4246Y-4.6618
X5.5246Y-3.6618
X5.5246Y-3.7618
X5.5246Y-4.5618
X5.5246Y-4.6618
X5.6246Y-3.6618
X5.6246Y-3.7618
X5.6246Y-3.8618
X5.6246Y-3.9618
X5.6246Y-4.0618
X5.6246Y-4.1618
X5.6246Y-4.2618
X5.6246Y-4.3618
X5.6246Y-4.4618
X5.6246Y-4.5618
X5.6246Y-4.6618
X5.7246Y-3.7618
X5.7246Y-3.8618
X5.7246Y-3.9618
X5.7246Y-4.0618
X5.7246Y-4.1618
X5.7246Y-4.2618
X5.7246Y-4.3618
X5.7246Y-4.4618
X5.7246Y-4.5618
X6.0357Y-4.0594
X6.0357Y-4.1594
X6.0357Y-4.2594
X6.0357Y-4.3594
X6.0357Y-4.4594
X6.0357Y-4.5594
X6.1357Y-3.9594
X6.1357Y-4.0594
X6.1357Y-4.1594
X6.1357Y-4.2594
X6.1357Y-4.3594
X6.1357Y-4.4594
X6.1357Y-4.5594
X6.1357Y-4.6594
X6.2357Y-3.9594
X6.2357Y-4.0594
X6.2357Y-4.5594
X6.2357Y-4.6594
X6.3357Y-3.9594
X6.3357Y-4.0594
X6.3357Y-4.5594
X6.3357Y-4.6594
X6.4357Y-3.9594
X6.4357Y-4.0594
X6.4357Y-4.5594
X6.4357Y-4.6594
X6.5357Y-3.9594
X6.5357Y-4.0594
X6.5357Y-4.5594
X6.5357Y-4.6594
X6.6357Y-3.9594
X6.6357Y-4.0594
X6.6357Y-4.1594
X6.6357Y-4.2594
X6.6357Y-4.3594
X6.6357Y-4.4594
X6.6357Y-4.5594
X6.6357Y-4.6594
X6.7357Y-4.0594
X6.7357Y-4.1594
X6.7357Y-4.2594
X6.7357Y-4.3594
X6.7357Y-4.4594
X6.7357Y-4.5594
T5
X7.0301Y-4.1144
X7.0301Y-4.2144
X7.0301Y-4.3144
X7.0301Y-4.4144
X7.0301Y-4.5144
X7.1301Y-4.1144
X7.1301Y-4.2144
X7.1301Y-4.3144
X7.1301Y-4.4144
X7.1301Y-4.5144
T6
X4.49Y-4.015
M30
