G04 #@! TF.GenerationSoftware,KiCad,Pcbnew,7.0.10*
G04 #@! TF.CreationDate,2024-02-23T15:08:55-06:00*
G04 #@! TF.ProjectId,A600FastRAM,41363030-4661-4737-9452-414d2e6b6963,5*
G04 #@! TF.SameCoordinates,Original*
G04 #@! TF.FileFunction,Profile,NP*
%FSLAX46Y46*%
G04 Gerber Fmt 4.6, Leading zero omitted, Abs format (unit mm)*
G04 Created by KiCad (PCBNEW 7.0.10) date 2024-02-23 15:08:55*
%MOMM*%
%LPD*%
G01*
G04 APERTURE LIST*
G04 #@! TA.AperFunction,Profile*
%ADD10C,0.150000*%
G04 #@! TD*
G04 APERTURE END LIST*
D10*
X203708000Y-84328000D02*
G75*
G03*
X202184000Y-82804000I-1524000J0D01*
G01*
X202184000Y-161544000D02*
G75*
G03*
X203708000Y-160020000I0J1524000D01*
G01*
X162814000Y-160020000D02*
G75*
G03*
X164338000Y-161544000I1524000J0D01*
G01*
X162814000Y-130556000D02*
G75*
G03*
X161290000Y-129032000I-1524000J0D01*
G01*
X110998000Y-127508000D02*
G75*
G03*
X112522000Y-129032000I1524000J0D01*
G01*
X112522000Y-82804000D02*
G75*
G03*
X110998000Y-84328000I0J-1524000D01*
G01*
X125900000Y-98100000D02*
X139500000Y-98100000D01*
X125100000Y-112500000D02*
X125100000Y-98900000D01*
X164338000Y-161544000D02*
X202184000Y-161544000D01*
X112522000Y-82804000D02*
X202184000Y-82804000D01*
X162814000Y-160020000D02*
X162814000Y-130556000D01*
X139500000Y-113300000D02*
G75*
G03*
X140300000Y-112500000I0J800000D01*
G01*
X140300000Y-98900000D02*
X140300000Y-112500000D01*
X140300000Y-98900000D02*
G75*
G03*
X139500000Y-98100000I-800000J0D01*
G01*
X203708000Y-84328000D02*
X203708000Y-160020000D01*
X112522000Y-129032000D02*
X161290000Y-129032000D01*
X125100000Y-112500000D02*
G75*
G03*
X125900000Y-113300000I800000J0D01*
G01*
X110998000Y-84328000D02*
X110998000Y-127508000D01*
X125900000Y-98100000D02*
G75*
G03*
X125100000Y-98900000I0J-800000D01*
G01*
X139500000Y-113300000D02*
X125900000Y-113300000D01*
M02*
